<svg width="64" height="64" viewBox="0 0 64 64" fill="none" xmlns="http://www.w3.org/2000/svg">
<rect width="64" height="64" rx="32" fill="#6366f1"/>
<svg x="16" y="16" width="32" height="32" viewBox="0 0 24 24" fill="none" stroke="white" stroke-width="2" stroke-linecap="round" stroke-linejoin="round">
<path d="m20 7-3 1m0 0-3-1m3 1v11c-1 0-3-1-3-2s-2-2-2-2s-2-2-2-2-2-2-3-2v-11m0 0h-13m16 0v9a9 9 0 0 1-9 9 9 9 0 0 1-9-9v-9m16 0H8m16 0H8m0 0L6 17m0 0-3-1m3 1V7c0-2-2-2-2-2s-2-2-2-2-2-2-2-2-2-2-2-2V7m0 0h13m-16 0H8m16 0H8m0 0L6 17m0 0-3-1m3 1V7c0-2-2-2-2-2s-2-2-2-2-2-2-2-2-2-2-2-2V7m0 0h13m-16 0H8m16 0H8"/>
</svg>
</svg>
